# xmcd
#
# Track frame offsets: 
#        150
#        22642
#        34927
#        52560
#        75012
#        93607
#        117824
#        134834
#        154242
#        175514
#        193577
#        210934
#        230757
#        249622
#        269764
#        282734
#        296241
#        309844
#        321879
#        334922
#
# Disc length: 4621 seconds
#
# Revision: 0
# Processed by: cddbd v1.5.2PL0 Copyright (c) Steve Scherf et al.
# Submitted via: ExactAudioCopy v0.99pb5
#
DISCID=1a120b14
DTITLE=Otis Spann - Ebony And Ivory Blues CD2
DYEAR=1960
DGENRE=Blues
TTITLE0=Monkey Face Blues
TTITLE1=One Doggone Reason
TTITLE2=Strange Woman Blues
TTITLE3=It Hurts Me Too
TTITLE4=Baby Child
TTITLE5=Talkin' The Blues
TTITLE6=Can't Stand Your Evil Ways
TTITLE7=Otis Blues
TTITLE8=Half Ain't Been Told
TTITLE9=Going Down Slow
TTITLE10=The Girl I Love
TTITLE11=Bad Condition
TTITLE12=Come Day, Go Day
TTITLE13=Got My Mojo Working
TTITLE14=Evil (Is Going On)
TTITLE15=No Money Down
TTITLE16=I'm A Man
TTITLE17=As Long As I Have You
TTITLE18=Let Me Love You Baby
TTITLE19=Don't Start Me Talking
EXTD=
EXTT0=
EXTT1=
EXTT2=
EXTT3=
EXTT4=
EXTT5=
EXTT6=
EXTT7=
EXTT8=
EXTT9=
EXTT10=
EXTT11=
EXTT12=
EXTT13=
EXTT14=
EXTT15=
EXTT16=
EXTT17=
EXTT18=
EXTT19=
PLAYORDER=
